<?xml version="1.0" encoding="UTF-8" standalone="no"?>
<svg width="130px" height="37px" viewBox="0 0 130 37" version="1.1" xmlns="http://www.w3.org/2000/svg" xmlns:xlink="http://www.w3.org/1999/xlink">
    <!-- Generator: Sketch 44.1 (41455) - http://www.bohemiancoding.com/sketch -->
    <title>grupo netshoes</title>
    <desc>Created with Sketch.</desc>
    <defs></defs>
    <g id="LIND" stroke="none" stroke-width="1" fill="none" fill-rule="evenodd">
        <g id="1.-TELA-INICIO" transform="translate(-585.000000, -1812.000000)" fill="#FFFFFF">
            <g id="grupo-netshoes" transform="translate(585.000000, 1812.000000)">
                <path d="M118.407028,29.2062222 C117.290158,28.5140741 114.971806,27.1558519 116.311083,23.9582222 C117.070168,22.1662222 118.317582,21.3247407 121.50864,21.3247407 L129.52013,21.3247407 C129.921429,21.3247407 130.076147,21.5617778 129.964944,21.9505185 L129.810226,22.4459259 C129.295305,24.0459259 128.848073,24.693037 126.885089,24.693037 L120.860758,24.693037 C120.326498,24.693037 119.99047,24.9300741 119.99047,25.3425185 C119.99047,25.6648889 120.212877,25.8379259 120.660109,26.1176296 L125.122755,28.8814815 C126.662682,29.832 128.446774,31.1499259 127.221117,34.1294815 C126.350829,36.2225185 125.033309,36.7416296 122.357171,36.7416296 L113.56484,36.7416296 C113.117608,36.7416296 113.006404,36.5022222 113.139365,36.0494815 L113.274743,35.6180741 C113.789664,33.9564444 114.321507,33.3733333 116.197462,33.3733333 L122.669025,33.3733333 C123.205703,33.3733333 123.539313,33.1576296 123.539313,32.7475556 C123.539313,32.4228148 123.316906,32.2497778 122.869675,31.9700741 L118.407028,29.2062222 Z M7.86346048,25.0817778 C7.84170327,24.8234074 7.77401416,24.693037 7.48391797,24.693037 C7.21557901,24.693037 7.10437547,24.8020741 7.03668636,25.0817778 L4.47175261,34.4968889 C4.024521,36.1585185 3.42257142,36.7416296 1.54903357,36.7416296 L0.475677699,36.7416296 C0.030863553,36.7416296 -0.0803399837,36.5022222 0.0526207666,36.0494815 L3.31136788,24.4773333 C3.93507468,22.2302222 5.00601308,21.1943704 8.13179945,21.1943704 C10.2736763,21.1943704 11.2551683,21.7134815 11.434061,24.4346667 L11.9900787,32.9845926 C12.0142534,33.242963 12.0577678,33.3733333 12.347864,33.3733333 C12.6162029,33.3733333 12.7274065,33.2642963 12.7950956,32.9845926 L15.2947577,23.5694815 C15.7395718,21.9078519 16.3197642,21.3247407 18.1957195,21.3247407 L19.2884151,21.3247407 C19.7332293,21.3247407 19.8468503,21.5617778 19.7114721,22.0145185 L16.4986568,33.589037 C15.8749501,35.8337778 14.8257689,36.872 11.7241572,36.872 C9.53634847,36.872 8.50892449,36.3528889 8.35420652,33.6317037 L7.86346048,25.0817778 Z M54.0516077,29.2062222 C52.9371548,28.5140741 50.6188028,27.1558519 51.9556628,23.9582222 C52.7147478,22.1662222 53.9645788,21.3247407 57.1556368,21.3247407 L65.1647089,21.3247407 C65.5660086,21.3247407 65.7231441,21.5617778 65.6119405,21.9505185 L65.4548051,22.4459259 C64.9423019,24.0459259 64.4950702,24.693037 62.5320861,24.693037 L56.5077553,24.693037 C55.9734949,24.693037 55.6374668,24.9300741 55.6374668,25.3425185 C55.6374668,25.6648889 55.8598739,25.8379259 56.3071055,26.1176296 L60.7697518,28.8814815 C62.309679,29.832 64.096188,31.1499259 62.8681141,34.1294815 C61.9954081,36.2225185 60.677888,36.7416296 58.0017507,36.7416296 L49.2118364,36.7416296 C48.7646047,36.7416296 48.6534012,36.5022222 48.786362,36.0494815 L48.9193227,35.6180741 C49.4342434,33.9564444 49.9685039,33.3733333 51.8444592,33.3733333 L58.3160216,33.3733333 C58.850282,33.3733333 59.1863101,33.1576296 59.1863101,32.7475556 C59.1863101,32.4228148 58.963903,32.2497778 58.5142539,31.9700741 L54.0516077,29.2062222 Z M50.8194527,21.3247407 C51.2642668,21.3247407 51.3754704,21.5831111 51.2400922,22.0145185 L51.1071314,22.4459259 C50.5946282,24.1099259 50.0579502,24.693037 48.1844124,24.693037 L47.60422,24.693037 C45.3511397,24.693037 44.8603936,25.4705185 44.258444,27.6512593 L42.3607315,34.4968889 C41.8917427,36.1798519 41.3115503,36.7416296 39.4380125,36.7416296 L38.0987351,36.7416296 C37.6515035,36.7416296 37.5402999,36.5022222 37.6756782,36.0494815 L40.6419116,25.3851852 C40.7772899,24.9300741 40.6636688,24.693037 40.2188547,24.693037 L35.6691796,24.693037 C35.2195305,24.693037 35.108327,24.456 35.2412877,24.0008889 L35.3766659,23.5694815 C35.8891692,21.9078519 36.4016724,21.3247407 38.2776277,21.3247407 L50.8194527,21.3247407 Z M79.3794219,34.4968889 C78.910433,36.1585185 78.3302407,36.7416296 76.4567028,36.7416296 L75.1174255,36.7416296 C74.6701938,36.7416296 74.5589903,36.5022222 74.6943685,36.0494815 L76.0771603,31.0622222 C76.2101211,30.6094815 76.0989175,30.3724444 75.6541034,30.3724444 L72.30591,30.3724444 C70.0528296,30.3724444 69.5161517,31.1499259 68.9359593,33.3306667 L68.6241059,34.4968889 C68.1768743,36.1798519 67.5749247,36.7416296 65.7013869,36.7416296 L64.3621095,36.7416296 C63.9148779,36.7416296 63.8036743,36.5022222 63.9366351,36.0494815 L67.4177893,23.5694815 C67.8867781,21.9078519 68.4452133,21.3247407 70.3187511,21.3247407 L71.6604459,21.3247407 C72.1052601,21.3247407 72.2164636,21.5617778 72.0835029,22.0145185 L70.8578465,26.421037 C70.7224683,26.8737778 70.8336718,27.1108148 71.278486,27.1108148 L74.6484366,27.1108148 C76.901517,27.1108148 77.4164377,26.3333333 77.9966301,24.1525926 L78.151348,23.5694815 C78.5985796,21.8865185 79.2005292,21.3247407 81.0764845,21.3247407 L82.4133444,21.3247407 C82.8629935,21.3247407 82.9717796,21.5617778 82.8388188,22.0145185 L79.3794219,34.4968889 Z M114.611603,21.3247407 C115.061252,21.3247407 115.172456,21.5617778 115.037078,22.0145185 L114.947631,22.3392593 C114.478642,24.0245926 113.920207,24.584 112.046669,24.584 L107.451062,24.584 C105.978824,24.584 105.55335,25.0391111 105.195565,26.3333333 L105.130293,26.5703704 C104.994915,27.0254815 105.108536,27.2625185 105.55335,27.2625185 L111.891952,27.2625185 C112.336766,27.2625185 112.447969,27.4995556 112.315008,27.9522963 L112.225562,28.277037 C111.756573,29.96 111.198138,30.5217778 109.3246,30.5217778 L105.775757,30.5217778 C104.303519,30.5217778 103.83453,30.9768889 103.500919,32.2711111 L103.367959,32.7902222 C103.254338,33.242963 103.343784,33.4823704 103.788598,33.4823704 L111.981398,33.4823704 C112.426212,33.4823704 112.537416,33.7194074 112.404455,34.1721481 L112.315008,34.4968889 C111.84602,36.1798519 111.287584,36.7416296 109.414047,36.7416296 L98.9053124,36.7416296 C98.4580808,36.7416296 98.3468773,36.5022222 98.479838,36.0494815 L101.3808,25.5558519 C102.251088,22.4245926 103.544434,21.3247407 106.87087,21.3247407 L114.611603,21.3247407 Z M34.1026602,21.3247407 C34.5498918,21.3247407 34.6610953,21.5617778 34.5281346,22.0145185 L34.4386883,22.3392593 C33.9696994,24.0245926 33.4112643,24.584 31.5377264,24.584 L26.9421194,24.584 C25.4698813,24.584 25.0444069,25.0391111 24.6866216,26.3333333 L24.62135,26.5703704 C24.4859717,27.0254815 24.5995927,27.2625185 25.0444069,27.2625185 L31.380591,27.2625185 C31.8278226,27.2625185 31.9390262,27.4995556 31.8060654,27.9522963 L31.7166191,28.277037 C31.2476303,29.96 30.6891951,30.5217778 28.8156573,30.5217778 L25.2692314,30.5217778 C23.7945758,30.5217778 23.325587,30.9768889 22.9919764,32.2711111 L22.8590156,32.7902222 C22.7453946,33.242963 22.8372584,33.4823704 23.2820726,33.4823704 L31.4724548,33.4823704 C31.9172689,33.4823704 32.0284725,33.7194074 31.8955117,34.1721481 L31.8060654,34.4968889 C31.3370766,36.1798519 30.7810589,36.7416296 28.9051036,36.7416296 L18.3939519,36.7416296 C17.9491378,36.7416296 17.8379342,36.5022222 17.970895,36.0494815 L20.8718568,25.5558519 C21.7421453,22.4245926 23.0354908,21.3247407 26.3619271,21.3247407 L34.1026602,21.3247407 Z M94.3072879,28.9691852 C95.1993337,25.8592593 95.2670228,24.3682963 91.5175296,24.3682963 C88.9525959,24.3682963 88.1499965,25.0604444 87.0113689,29.0331852 C86.1193232,32.1431111 86.0298769,33.6317037 89.7334381,33.6317037 C92.4555073,33.6317037 93.1904176,32.8328889 94.3072879,28.9691852 L94.3072879,28.9691852 Z M82.7711297,28.7084444 C84.4222605,22.3179259 87.5456294,21 92.0082757,21 C99.1929911,21 99.8408726,24.4133333 98.5692843,29.2915556 C97.0075999,35.272 94.3072879,37 89.2209349,37 C82.6164118,37 81.3859205,34.0868148 82.7711297,28.7084444 L82.7711297,28.7084444 Z" id="logo"></path>
                <path d="M8.49431877,8.51692109 C8.28856498,9.22567596 8.14698725,9.90543547 8.06969429,10.5496519 C7.60649766,14.4102736 9.45109592,17 13.6349123,17 C15.8628815,17 17.95143,16.2889066 19.4206118,15.5570019 L21.574085,8.13436681 L15.9087165,8.13436681 L15.399216,9.8909378 L18.4185045,9.8909378 L17.3595404,13.5415751 C16.5445969,14.1334123 15.4426951,14.5480022 14.3968537,14.5480022 C11.9073678,14.5480022 11.1600122,12.7710873 11.4455332,10.3913449 C11.5167101,9.79810478 11.6521983,9.16721712 11.8407561,8.5171548 C12.7857412,5.2598284 15.0301461,2.8209257 17.8073568,2.6532658 C18.0402884,2.6319867 18.2692215,2.62146418 18.4941846,2.62146418 C19.7347531,2.62146418 20.8583313,2.93644041 21.9356212,3.46607732 L23.1881547,1.18103832 C21.9300229,0.400262125 20.5370975,0.013264561 18.5641015,0.013264561 C13.6824096,0.0130312109 9.93225612,3.56007959 8.49431877,8.51692109 Z M27.6803984,0.327305969 L34.6528996,0.327305256 C36.7366849,0.327305256 38.6766073,1.62415623 38.3507144,4.34038766 C38.312615,4.6579361 38.2435306,4.99489291 38.1400487,5.35149181 C37.5375073,7.4284175 35.9001358,8.94904871 34.0060965,9.53971666 L33.2195867,9.60682728 L34.0855456,12.3567311 C34.4016673,13.5039272 34.9031282,14.0843067 35.7421725,14.3522822 C36.0263935,14.4395026 36.3347024,14.4839312 36.685664,14.4944537 L35.6478599,16.7425467 C35.2408652,16.7476911 34.9117709,16.750497 34.6414543,16.750497 C33.6486384,16.750497 33.4452275,16.7119143 33.0607214,16.5992055 C32.1021602,16.311822 31.4517825,15.5640167 31.0957862,14.207538 L30.0081521,10.2473026 L27.9634028,10.2473026 L26.0924284,16.69578 L22.9314381,16.69578 L27.6803984,0.327305969 Z M30.200713,2.65794208 L28.6751101,7.9166651 L31.6709322,7.9166651 C33.0103311,7.9166651 34.3784129,7.07579305 34.8859996,5.32576942 C34.9498281,5.10596434 34.9923985,4.8997214 35.0155443,4.70680724 C35.1789677,3.34471637 34.3703143,2.65794208 33.1841248,2.65794208 L30.200713,2.65794208 Z M55.7462988,0.327305969 L52.4492476,0.327305969 L49.1947078,11.5446214 C48.5829077,13.6535824 47.3836603,14.537246 45.4819666,14.537246 C43.8776662,14.537246 43.1381241,13.9082291 43.3136955,12.4448874 C43.3462119,12.1738724 43.4101585,11.8740953 43.5058732,11.5446214 L46.7601875,0.327305969 L43.4631363,0.327305969 L40.2488696,11.4064246 C40.125688,11.8313034 40.0427669,12.2309279 39.9977658,12.6059996 C39.642583,15.5663552 41.6494801,16.9763824 44.7734655,16.9763824 C48.2927722,16.9763824 51.4354414,15.1863728 52.5320328,11.4064246 L55.7462988,0.327305969 Z M60.0031725,0.300287584 L66.8315461,0.299819457 C68.9846027,0.299819457 70.9729745,1.67430358 70.630641,4.52756253 C70.58968,4.86896228 70.5152814,5.23140706 70.4040323,5.61513094 C69.5842268,8.44032973 66.8380059,10.8020667 63.7846456,10.8020667 L60.1545495,10.8020667 L58.4524333,16.6687616 L55.2542121,16.6687616 L60.0031725,0.300287584 Z M62.5403111,2.69837511 L60.8475679,8.53396988 L63.6913084,8.53396988 C65.1092299,8.53396988 66.5709205,7.59932998 67.1342304,5.65756145 C67.2115111,5.39145672 67.2626296,5.14405888 67.2900959,4.91513424 C67.4711101,3.4064285 66.6198819,2.69837511 65.3718672,2.69837511 L62.5403111,2.69837511 Z M81.309937,-1.37923116e-16 C85.7794137,-7.13608822e-07 87.3745603,2.49104717 86.92772,6.21534278 C86.8413651,6.93508794 86.6788298,7.70113239 86.4457494,8.50412288 C85.0078401,13.4607307 81.7119512,16.9998287 76.3787247,16.9998287 C71.9081198,16.9998287 70.3095067,14.5132238 70.7563189,10.7891622 C70.8425335,10.0705863 71.0049005,9.30594482 71.2373892,8.50412359 C72.6755524,3.54728208 75.9767105,2.25857608e-14 81.309937,-1.37923116e-16 Z M80.6317147,2.398789 C77.3218303,2.39855494 75.5022229,5.19358877 74.5530725,8.46494508 C74.3460246,9.17884435 74.1936795,9.86936009 74.1164707,10.5128751 C73.8398432,12.8184917 74.5274967,14.5194101 77.1149102,14.5194101 C80.4241461,14.5194101 82.2505871,11.7370032 83.2000472,8.46494543 C83.406279,7.75408613 83.5578922,7.06590889 83.6349326,6.42379688 C83.9124298,4.11093142 83.2220617,2.398789 80.6317147,2.398789 Z" id="GRUPO"></path>
            </g>
        </g>
    </g>
</svg>