<?xml version="1.0" encoding="UTF-8" standalone="no"?>
<svg width="266px" height="70px" viewBox="0 0 266 70" version="1.1" xmlns="http://www.w3.org/2000/svg" xmlns:xlink="http://www.w3.org/1999/xlink">
    <!-- Generator: Sketch 44.1 (41455) - http://www.bohemiancoding.com/sketch -->
    <title>LOGO LIND</title>
    <desc>Created with Sketch.</desc>
    <defs>
        <linearGradient x1="0%" y1="0%" x2="72.5318385%" y2="70.0549084%" id="linearGradient-1">
            <stop stop-color="#04BC47" offset="0%"></stop>
            <stop stop-color="#1A9E3B" offset="100%"></stop>
        </linearGradient>
        <linearGradient x1="100%" y1="0%" x2="0%" y2="100%" id="linearGradient-2">
            <stop stop-color="#ACDF1D" offset="0%"></stop>
            <stop stop-color="#69B014" offset="100%"></stop>
        </linearGradient>
        <linearGradient x1="98.8883284%" y1="1.26788721%" x2="30.0135081%" y2="79.8212153%" id="linearGradient-3">
            <stop stop-color="#FFA129" offset="0%"></stop>
            <stop stop-color="#FF6F1A" offset="100%"></stop>
        </linearGradient>
        <linearGradient x1="0%" y1="0%" x2="100%" y2="100%" id="linearGradient-4">
            <stop stop-color="#ACDF1D" offset="0%"></stop>
            <stop stop-color="#69B014" offset="100%"></stop>
        </linearGradient>
    </defs>
    <g id="LIND" stroke="none" stroke-width="1" fill="none" fill-rule="evenodd">
        <g id="1.-TELA-INICIO" transform="translate(-180.000000, -40.000000)">
            <g id="LOGO-LIND" transform="translate(180.000000, 40.000000)">
                <path d="M208.444444,36.1490704 L208.444444,33.6586579 L221.840749,33.6586579 L221.840749,36.1490704 L216.524298,36.1490704 L216.524298,51.8701813 L213.761212,51.8701813 L213.761212,36.1490704 L208.444444,36.1490704 Z M227.629598,45.6568645 L227.629598,49.379447 L236.578077,49.379447 L236.578077,51.8701813 L224.840256,51.8701813 L224.840256,33.6586579 L236.209876,33.6586579 L236.209876,36.1490704 L227.629598,36.1490704 L227.629598,43.2198847 L235.236232,43.2198847 L235.236232,45.6568645 L227.629598,45.6568645 Z M246.393377,41.3450744 C249.4459,42.710826 251.077813,44.1570485 251.077813,47.0765316 C251.077813,50.2634999 248.629785,52.1111111 245.261571,52.1111111 C241.86647,52.1111111 239.812897,50.3974035 238.813314,48.335096 L241.102864,47.0501372 C241.945551,48.4693214 243.02453,49.5939823 245.208429,49.5939823 C247.025391,49.5939823 248.314726,48.603225 248.314726,47.1035698 C248.314726,45.5228001 247.262002,44.8262442 245.314713,43.9423522 L244.129765,43.40706 C241.523575,42.2289664 239.94512,40.8896093 239.94512,38.078279 C239.94512,35.3728484 241.99806,33.4444444 244.971819,33.4444444 C247.341082,33.4444444 248.946108,34.3547309 250.025405,36.3101731 L247.840241,37.6762465 C247.156982,36.470471 246.366806,35.9081406 244.971819,35.9081406 C243.550893,35.9081406 242.65633,36.7920326 242.65633,38.0238807 C242.65633,39.3896323 243.419935,40.006361 245.235632,40.8097822 L246.393377,41.3450744 Z M252.603695,33.6585613 L266,33.6585613 L266,36.1489738 L260.683549,36.1489738 L260.683549,51.8700848 L257.920146,51.8700848 L257.920146,36.1489738 L252.603695,36.1489738 L252.603695,33.6585613 Z" id="TEST" fill="#B4B4B4"></path>
                <path d="M196.046642,49.6648187 L191.884248,49.6648187 L191.884248,43.5615767 L195.91062,43.5615767 C198.195523,43.5615767 199.337974,44.8240875 199.337974,46.6133558 C199.337974,48.4023079 198.277267,49.6648187 196.046642,49.6648187 L196.046642,49.6648187 Z M191.884248,36.6685147 L195.529694,36.6685147 C197.325115,36.6685147 198.113779,37.5895499 198.113779,38.9320545 C198.113779,40.2736105 197.297649,41.1943296 195.583972,41.1943296 L191.884248,41.1943296 L191.884248,36.6685147 Z M198.440427,42.1675347 C200.045548,41.6410933 200.943749,40.4310686 200.943749,38.7211617 C200.943749,36.2476777 199.175141,34.2222222 195.720321,34.2222222 L189,34.2222222 L189,52.1111111 L196.209803,52.1111111 C200.099826,52.1111111 202.222222,49.79635 202.222222,46.7183279 C202.222222,44.4298098 200.916283,42.7199029 198.440427,42.1675347 L198.440427,42.1675347 Z" id="B" fill="#B4B4B4"></path>
                <path d="M181.584467,47.2941737 L175.143442,47.2941737 L177.45377,41.774036 C177.91564,40.732223 178.350725,39.1439981 178.350725,39.1439981 C178.350725,39.1439981 178.812595,40.732223 179.274465,41.774036 L181.584467,47.2941737 Z M178.241627,34.2222222 L170.333333,52.1111111 L173.105205,52.1111111 L174.165153,49.6109478 L182.617304,49.6109478 L183.676926,52.1111111 L186.666667,52.1111111 L178.567941,34.2222222 L178.241627,34.2222222 Z" id="A" fill="#B4B4B4"></path>
                <path d="M64.5555556,58.3284066 L85.2045227,58.3284066 L85.2045227,51.4894631 L72.5347106,51.4894631 L72.5347106,27.9331018 L64.5555556,27.9331018 L64.5555556,58.3284066 Z M89.0608555,58.3284066 L97.0396937,58.3284066 L97.0396937,27.9331018 L89.0608555,27.9331018 L89.0608555,58.3284066 Z M128.604269,58.8647184 C129.085915,59.2672752 129.21805,59.1328742 129.21805,58.7752254 L129.21805,27.9331018 L121.720858,27.9331018 L121.720858,43.1759853 L103.001324,27.4420212 C102.519362,27.0394643 102.38786,27.2630352 102.38786,27.5311911 L102.38786,58.3284066 L109.884102,58.3284066 L109.884102,43.1759853 L128.604269,58.8647184 Z M134.389402,58.3284066 L145.919109,58.3284066 C154.512362,58.3284066 161,52.5620865 161,43.1310773 C161,33.699422 154.512362,27.9331018 145.919109,27.9331018 L134.389402,27.9331018 L134.389402,58.3284066 Z M142.367923,51.444555 L142.367923,34.8175996 L145.042007,34.8175996 C149.864482,34.8175996 152.846248,38.0797317 152.846248,43.1310773 C152.846248,48.1817767 149.864482,51.444555 145.042007,51.444555 L142.367923,51.444555 Z" id="LIND" fill="#6D6D6D"></path>
                <g id="symbol">
                    <path d="M32.6666667,62.2222222 C43.4925857,61.7179769 52.1111111,53.031435 52.1111111,42.3888889 L52.1111111,42.3888889 C52.1111111,31.7460268 43.4925857,23.0594849 32.6666667,22.5555556 L32.6666667,22.5555556 L32.6666667,62.2222222 Z" id="LEMON" fill="url(#linearGradient-1)"></path>
                    <path d="M32.6666667,22.3856162 C36.7221723,22.751469 45.7316209,23.5702974 49,11.8213413 L49,11.8213413 C48.9798173,11.8181846 48.952907,11.8143967 48.9192691,11.8096618 L48.9192691,11.8096618 C48.6171397,11.7670473 47.7841434,11.6666667 46.6419843,11.6666667 L46.6419843,11.6666667 C42.6060498,11.6666667 34.7038992,12.9182682 32.6666667,22.3856162" id="LEAF" fill="url(#linearGradient-2)"></path>
                    <path d="M0,44.3325433 C0,58.105957 11.0312719,69.3474188 24.8888889,70 L24.8888889,70 L24.8888889,18.6666667 C11.0312719,19.3182998 0,30.5597616 0,44.3325433" id="ORANGE" fill="url(#linearGradient-3)"></path>
                    <path d="M2.33333333,0.0546947156 C2.33900792,0.0855811432 2.3468893,0.126763047 2.35697746,0.177596959 L2.35697746,0.177596959 C2.76964637,2.25020495 6.94110165,20.6472551 24.8888889,18.4913181 L24.8888889,18.4913181 C23.4409223,12.6727656 20.2965681,0.000965200863 4.20248073,0 L4.20248073,0 C3.59719097,0 2.97613845,0.0176953492 2.33333333,0.0546947156 L2.33333333,0.0546947156 Z" id="LEAF" fill="url(#linearGradient-4)"></path>
                </g>
            </g>
        </g>
    </g>
</svg>